<svg width="695" height="157" viewBox="0 0 695 157" fill="none" xmlns="http://www.w3.org/2000/svg">
<path d="M0.838779 54H11.7308V31.7812C11.7308 26.9489 15.2592 23.625 20.0661 23.625C21.5746 23.625 23.6456 23.8807 24.6683 24.2131V14.5483C23.6967 14.3182 22.3416 14.1648 21.2422 14.1648C16.8445 14.1648 13.2393 16.7216 11.8075 21.5795H11.3984V14.7273H0.838779V54ZM46.2159 54.767C58.1307 54.767 65.5455 46.6108 65.5455 34.517C65.5455 22.3466 58.1307 14.2159 46.2159 14.2159C34.3011 14.2159 26.8864 22.3466 26.8864 34.517C26.8864 46.6108 34.3011 54.767 46.2159 54.767ZM46.267 46.3295C40.7699 46.3295 37.9574 41.2926 37.9574 34.4403C37.9574 27.5881 40.7699 22.5256 46.267 22.5256C51.6619 22.5256 54.4744 27.5881 54.4744 34.4403C54.4744 41.2926 51.6619 46.3295 46.267 46.3295ZM105.304 25.9261C104.332 18.6903 98.5028 14.2159 88.5824 14.2159C78.5341 14.2159 71.9119 18.8693 71.9375 26.4375C71.9119 32.3182 75.6193 36.1278 83.2898 37.6619L90.0909 39.017C93.517 39.7074 95.0767 40.9602 95.1278 42.929C95.0767 45.2557 92.5455 46.9176 88.7358 46.9176C84.8494 46.9176 82.267 45.2557 81.6023 42.0597L70.8892 42.6222C71.9119 50.1392 78.304 54.767 88.7102 54.767C98.8864 54.767 106.173 49.5767 106.199 41.8295C106.173 36.1534 102.466 32.7528 94.8466 31.1932L87.7386 29.7614C84.0824 28.9688 82.7273 27.7159 82.7528 25.8239C82.7273 23.4716 85.3864 21.9375 88.7614 21.9375C92.5455 21.9375 94.7955 24.0085 95.3324 26.5398L105.304 25.9261ZM123.95 31.2955C123.975 26.233 127.069 23.267 131.518 23.267C135.941 23.267 138.549 26.1051 138.523 30.9375V54H149.415V28.9943C149.441 19.7898 144.021 14.2159 135.839 14.2159C129.881 14.2159 125.893 17.0284 124.103 21.6562H123.643V1.63636H113.058V54H123.95V31.2955ZM169.186 54.7415C174.99 54.7415 178.749 52.2102 180.666 48.554H180.973V54H191.303V27.5114C191.303 18.1534 183.376 14.2159 174.632 14.2159C165.223 14.2159 159.036 18.7159 157.527 25.875L167.601 26.6932C168.342 24.0852 170.669 22.1676 174.581 22.1676C178.288 22.1676 180.411 24.0341 180.411 27.2557V27.4091C180.411 29.9403 177.726 30.2727 170.899 30.9375C163.126 31.6534 156.146 34.2614 156.146 43.0312C156.146 50.804 161.695 54.7415 169.186 54.7415ZM172.305 47.2244C168.956 47.2244 166.553 45.6648 166.553 42.6733C166.553 39.6051 169.084 38.0966 172.919 37.5597C175.297 37.2273 179.183 36.6648 180.487 35.7955V39.9631C180.487 44.0795 177.087 47.2244 172.305 47.2244ZM210.645 31.2955C210.67 26.233 213.688 23.267 218.085 23.267C222.457 23.267 225.091 26.1307 225.065 30.9375V54H235.957V28.9943C235.957 19.8409 230.588 14.2159 222.406 14.2159C216.577 14.2159 212.358 17.0795 210.594 21.6562H210.134V14.7273H199.753V54H210.645V31.2955ZM244.542 54H255.434V31.7812C255.434 26.9489 258.962 23.625 263.769 23.625C265.278 23.625 267.349 23.8807 268.371 24.2131V14.5483C267.4 14.3182 266.045 14.1648 264.945 14.1648C260.548 14.1648 256.942 16.7216 255.511 21.5795H255.102V14.7273H244.542V54ZM284.077 54.7415C289.881 54.7415 293.639 52.2102 295.557 48.554H295.864V54H306.193V27.5114C306.193 18.1534 298.267 14.2159 289.523 14.2159C280.114 14.2159 273.926 18.7159 272.418 25.875L282.491 26.6932C283.233 24.0852 285.56 22.1676 289.472 22.1676C293.179 22.1676 295.301 24.0341 295.301 27.2557V27.4091C295.301 29.9403 292.616 30.2727 285.79 30.9375C278.017 31.6534 271.037 34.2614 271.037 43.0312C271.037 50.804 276.585 54.7415 284.077 54.7415ZM287.196 47.2244C283.847 47.2244 281.443 45.6648 281.443 42.6733C281.443 39.6051 283.974 38.0966 287.81 37.5597C290.188 37.2273 294.074 36.6648 295.378 35.7955V39.9631C295.378 44.0795 291.977 47.2244 287.196 47.2244ZM325.536 31.2955C325.561 26.233 328.655 23.267 333.104 23.267C337.527 23.267 340.135 26.1051 340.109 30.9375V54H351.001V28.9943C351.027 19.7898 345.607 14.2159 337.425 14.2159C331.467 14.2159 327.479 17.0284 325.689 21.6562H325.229V1.63636H314.643V54H325.536V31.2955ZM359.573 54H370.465V30.4261C370.465 26.0795 373.227 23.1903 376.857 23.1903C380.437 23.1903 382.84 25.6449 382.84 29.5057V54H393.4V30.017C393.4 25.9517 395.727 23.1903 399.69 23.1903C403.167 23.1903 405.775 25.3636 405.775 29.7358V54H416.641V27.5881C416.641 19.0739 411.579 14.2159 404.266 14.2159C398.513 14.2159 394.039 17.1562 392.428 21.6562H392.019C390.766 17.1051 386.752 14.2159 381.357 14.2159C376.065 14.2159 372.05 17.0284 370.414 21.6562H369.954V14.7273H359.573V54ZM436.444 54.7415C442.248 54.7415 446.006 52.2102 447.924 48.554H448.231V54H458.56V27.5114C458.56 18.1534 450.634 14.2159 441.89 14.2159C432.481 14.2159 426.293 18.7159 424.785 25.875L434.859 26.6932C435.6 24.0852 437.927 22.1676 441.839 22.1676C445.546 22.1676 447.668 24.0341 447.668 27.2557V27.4091C447.668 29.9403 444.984 30.2727 438.157 30.9375C430.384 31.6534 423.404 34.2614 423.404 43.0312C423.404 50.804 428.952 54.7415 436.444 54.7415ZM439.563 47.2244C436.214 47.2244 433.81 45.6648 433.81 42.6733C433.81 39.6051 436.342 38.0966 440.177 37.5597C442.555 37.2273 446.441 36.6648 447.745 35.7955V39.9631C447.745 44.0795 444.344 47.2244 439.563 47.2244ZM477.903 31.2955C477.928 26.233 480.945 23.267 485.343 23.267C489.715 23.267 492.349 26.1307 492.323 30.9375V54H503.215V28.9943C503.215 19.8409 497.846 14.2159 489.664 14.2159C483.835 14.2159 479.616 17.0795 477.852 21.6562H477.391V14.7273H467.011V54H477.903V31.2955ZM531.794 54.7159C543.453 54.767 551.405 47.1222 551.379 36.4602C551.405 26.642 544.553 19.5597 535.271 19.5597C529.518 19.5597 524.43 22.321 522.078 26.9489H521.72C521.771 16.5938 525.351 10.2528 532.178 10.2528C536.192 10.2528 539.081 12.4261 539.925 16.2614H550.842C549.794 7.46591 542.635 0.767043 532.178 0.767043C519.24 0.767043 510.93 11.25 510.879 28.9943C510.93 48.1705 521.03 54.6648 531.794 54.7159ZM531.743 46.0227C526.629 46.0227 522.845 41.9062 522.845 36.7926C522.871 31.7045 526.732 27.5625 531.82 27.5625C536.933 27.5625 540.666 31.5767 540.641 36.767C540.666 42.0085 536.857 46.0227 531.743 46.0227ZM578.584 54.7159C590.345 54.7159 598.757 48.2472 598.732 39.2983C598.757 32.7784 594.615 28.125 586.919 27.1534V26.7443C592.774 25.696 596.814 21.554 596.788 15.6733C596.814 7.41477 589.578 0.920453 578.737 0.920453C567.999 0.920453 559.919 7.21022 559.766 16.2614H570.376C570.504 12.2727 574.161 9.69034 578.686 9.69034C583.161 9.69034 586.152 12.4006 586.126 16.3381C586.152 20.4545 582.649 23.2415 577.612 23.2415H572.729V31.3722H577.612C583.544 31.3722 587.251 34.3381 587.226 38.5568C587.251 42.7244 583.672 45.5881 578.609 45.5881C573.726 45.5881 570.07 43.0312 569.865 39.196H558.717C558.896 48.3494 567.078 54.7159 578.584 54.7159ZM625.636 0.767043C613.925 0.715909 606.025 8.38636 606.076 19.0227C606.025 28.8409 612.877 35.9233 622.158 35.9233C627.911 35.9233 633.025 33.1364 635.352 28.5341H635.71C635.684 38.9148 632.079 45.2301 625.252 45.2301C621.238 45.2301 618.349 43.0312 617.505 39.2216H606.587C607.61 48.0426 614.769 54.7159 625.252 54.7159C638.215 54.7159 646.525 44.233 646.55 26.4631C646.525 7.3125 636.4 0.792612 625.636 0.767043ZM625.712 9.46022C630.8 9.46022 634.559 13.6023 634.61 18.6648C634.559 23.7528 630.673 27.8949 625.61 27.8949C620.496 27.8949 616.763 23.9062 616.815 18.7159C616.763 13.4744 620.573 9.46022 625.712 9.46022ZM673.167 0.767043C661.457 0.715909 653.556 8.38636 653.607 19.0227C653.556 28.8409 660.408 35.9233 669.69 35.9233C675.442 35.9233 680.556 33.1364 682.883 28.5341H683.241C683.215 38.9148 679.61 45.2301 672.783 45.2301C668.769 45.2301 665.88 43.0312 665.036 39.2216H654.119C655.141 48.0426 662.3 54.7159 672.783 54.7159C685.746 54.7159 694.056 44.233 694.082 26.4631C694.056 7.3125 683.931 0.792612 673.167 0.767043ZM673.244 9.46022C678.332 9.46022 682.09 13.6023 682.141 18.6648C682.09 23.7528 678.204 27.8949 673.141 27.8949C668.028 27.8949 664.295 23.9062 664.346 18.7159C664.295 13.4744 668.104 9.46022 673.244 9.46022Z" fill="#121212"/>
<path d="M165.661 156.085C172.948 156.085 180.081 154.372 183.277 152.557L180.746 145.142C178.01 146.267 172.13 147.75 166.249 147.75C149.578 147.75 140.527 138.903 140.476 122.744C140.527 108.119 148.863 97.0994 165.865 97.0994C178.164 97.0994 189.593 102.98 189.567 119.037C189.593 129.034 187.752 133.585 184.223 133.585C182.459 133.585 181.385 132.256 181.36 129.878V104.923H173.357V107.787H172.999C172.13 105.537 166.709 103.415 160.956 104.284C154.13 105.281 146.766 110.881 146.715 122.744C146.766 134.787 153.618 140.949 161.698 141.384C167.502 141.716 172.718 139.287 173.919 136.193H174.226C174.789 139.722 177.141 142.125 183.073 141.69C194.118 141.077 198.337 132.179 198.311 119.625C198.337 101.446 186.32 88.8665 165.993 88.8665C144.005 88.8665 131.4 102.494 131.374 123.051C131.4 143.94 143.902 156.085 165.661 156.085ZM164.485 132.972C157.811 132.972 155.561 127.858 155.536 122.438C155.561 116.608 158.757 112.798 164.434 112.798C170.902 112.798 172.846 116.224 172.871 122.361C172.948 129.315 170.749 132.972 164.485 132.972ZM223.247 156.29C234.471 156.29 242.449 151.176 242.449 141.384V101.727H231.633V108.324H231.224C229.767 105.128 226.571 101.216 220 101.216C211.383 101.216 204.096 107.915 204.096 121.287C204.096 134.352 211.179 140.438 220.025 140.438C226.289 140.438 229.792 137.293 231.224 134.045H231.684V141.23C231.684 146.369 228.233 148.466 223.502 148.466C218.696 148.466 216.267 146.369 215.372 144.247L205.298 145.602C206.602 151.534 212.662 156.29 223.247 156.29ZM223.477 132.256C218.133 132.256 215.218 128.011 215.218 121.236C215.218 114.562 218.082 109.884 223.477 109.884C228.77 109.884 231.735 114.358 231.735 121.236C231.735 128.165 228.718 132.256 223.477 132.256ZM251.116 141H262.008V117.426C262.008 113.08 264.77 110.19 268.4 110.19C271.98 110.19 274.383 112.645 274.383 116.506V141H284.943V117.017C284.943 112.952 287.27 110.19 291.233 110.19C294.71 110.19 297.318 112.364 297.318 116.736V141H308.184V114.588C308.184 106.074 303.122 101.216 295.809 101.216C290.056 101.216 285.582 104.156 283.971 108.656H283.562C282.309 104.105 278.295 101.216 272.9 101.216C267.608 101.216 263.593 104.028 261.957 108.656H261.497V101.727H251.116V141ZM327.987 141.741C333.791 141.741 337.549 139.21 339.467 135.554H339.774V141H350.103V114.511C350.103 105.153 342.177 101.216 333.433 101.216C324.024 101.216 317.836 105.716 316.328 112.875L326.402 113.693C327.143 111.085 329.47 109.168 333.382 109.168C337.089 109.168 339.211 111.034 339.211 114.256V114.409C339.211 116.94 336.527 117.273 329.7 117.938C321.927 118.653 314.947 121.261 314.947 130.031C314.947 137.804 320.495 141.741 327.987 141.741ZM331.106 134.224C327.757 134.224 325.353 132.665 325.353 129.673C325.353 126.605 327.885 125.097 331.72 124.56C334.098 124.227 337.984 123.665 339.288 122.795V126.963C339.288 131.08 335.887 134.224 331.106 134.224ZM358.554 141H369.446V101.727H358.554V141ZM364.025 96.6648C367.272 96.6648 369.931 94.1847 369.931 91.142C369.931 88.125 367.272 85.6449 364.025 85.6449C360.804 85.6449 358.145 88.125 358.145 91.142C358.145 94.1847 360.804 96.6648 364.025 96.6648ZM389.063 88.6364H378.171V141H389.063V88.6364ZM404.154 141.665C407.427 141.665 410.265 138.929 410.291 135.528C410.265 132.179 407.427 129.443 404.154 129.443C400.779 129.443 397.993 132.179 398.018 135.528C397.993 138.929 400.779 141.665 404.154 141.665ZM436.978 141.767C447.435 141.767 454.006 135.631 454.517 126.605H444.239C443.6 130.798 440.838 133.151 437.105 133.151C432.017 133.151 428.719 128.881 428.719 121.364C428.719 113.949 432.043 109.705 437.105 109.705C441.094 109.705 443.651 112.338 444.239 116.25H454.517C454.057 107.173 447.179 101.216 436.926 101.216C425.012 101.216 417.648 109.474 417.648 121.517C417.648 133.457 424.884 141.767 436.978 141.767ZM479.235 141.767C491.15 141.767 498.565 133.611 498.565 121.517C498.565 109.347 491.15 101.216 479.235 101.216C467.321 101.216 459.906 109.347 459.906 121.517C459.906 133.611 467.321 141.767 479.235 141.767ZM479.287 133.33C473.789 133.33 470.977 128.293 470.977 121.44C470.977 114.588 473.789 109.526 479.287 109.526C484.681 109.526 487.494 114.588 487.494 121.44C487.494 128.293 484.681 133.33 479.287 133.33ZM505.647 141H516.539V117.426C516.539 113.08 519.301 110.19 522.931 110.19C526.511 110.19 528.914 112.645 528.914 116.506V141H539.474V117.017C539.474 112.952 541.801 110.19 545.764 110.19C549.241 110.19 551.849 112.364 551.849 116.736V141H562.716V114.588C562.716 106.074 557.653 101.216 550.341 101.216C544.588 101.216 540.113 104.156 538.502 108.656H538.093C536.841 104.105 532.826 101.216 527.431 101.216C522.139 101.216 518.125 104.028 516.488 108.656H516.028V101.727H505.647V141Z" fill="#6A6A6A"/>
</svg>
