<svg width="1141" height="78" viewBox="0 0 1141 78" fill="none" xmlns="http://www.w3.org/2000/svg">
<path d="M4.34659 56H15.2386V33.7812C15.2386 28.9489 18.767 25.625 23.5739 25.625C25.0824 25.625 27.1534 25.8807 28.1761 26.2131V16.5483C27.2045 16.3182 25.8494 16.1648 24.75 16.1648C20.3523 16.1648 16.7472 18.7216 15.3153 23.5795H14.9062V16.7273H4.34659V56ZM49.7237 56.767C61.6385 56.767 69.0533 48.6108 69.0533 36.517C69.0533 24.3466 61.6385 16.2159 49.7237 16.2159C37.8089 16.2159 30.3942 24.3466 30.3942 36.517C30.3942 48.6108 37.8089 56.767 49.7237 56.767ZM49.7749 48.3295C44.2777 48.3295 41.4652 43.2926 41.4652 36.4403C41.4652 29.5881 44.2777 24.5256 49.7749 24.5256C55.1697 24.5256 57.9822 29.5881 57.9822 36.4403C57.9822 43.2926 55.1697 48.3295 49.7749 48.3295ZM108.812 27.9261C107.84 20.6903 102.011 16.2159 92.0902 16.2159C82.0419 16.2159 75.4197 20.8693 75.4453 28.4375C75.4197 34.3182 79.1271 38.1278 86.7976 39.6619L93.5987 41.017C97.0249 41.7074 98.5845 42.9602 98.6357 44.929C98.5845 47.2557 96.0533 48.9176 92.2436 48.9176C88.3572 48.9176 85.7749 47.2557 85.1101 44.0597L74.397 44.6222C75.4197 52.1392 81.8118 56.767 92.218 56.767C102.394 56.767 109.681 51.5767 109.707 43.8295C109.681 38.1534 105.974 34.7528 98.3544 33.1932L91.2465 31.7614C87.5902 30.9688 86.2351 29.7159 86.2607 27.8239C86.2351 25.4716 88.8942 23.9375 92.2692 23.9375C96.0533 23.9375 98.3033 26.0085 98.8402 28.5398L108.812 27.9261ZM127.457 33.2955C127.483 28.233 130.577 25.267 135.026 25.267C139.449 25.267 142.057 28.1051 142.031 32.9375V56H152.923V30.9943C152.949 21.7898 147.528 16.2159 139.347 16.2159C133.389 16.2159 129.401 19.0284 127.611 23.6562H127.151V3.63636H116.565V56H127.457V33.2955ZM172.694 56.7415C178.498 56.7415 182.256 54.2102 184.174 50.554H184.481V56H194.81V29.5114C194.81 20.1534 186.884 16.2159 178.14 16.2159C168.731 16.2159 162.543 20.7159 161.035 27.875L171.109 28.6932C171.85 26.0852 174.177 24.1676 178.089 24.1676C181.796 24.1676 183.918 26.0341 183.918 29.2557V29.4091C183.918 31.9403 181.234 32.2727 174.407 32.9375C166.634 33.6534 159.654 36.2614 159.654 45.0312C159.654 52.804 165.202 56.7415 172.694 56.7415ZM175.813 49.2244C172.464 49.2244 170.06 47.6648 170.06 44.6733C170.06 41.6051 172.592 40.0966 176.427 39.5597C178.805 39.2273 182.691 38.6648 183.995 37.7955V41.9631C183.995 46.0795 180.594 49.2244 175.813 49.2244ZM214.153 33.2955C214.178 28.233 217.195 25.267 221.593 25.267C225.965 25.267 228.599 28.1307 228.573 32.9375V56H239.465V30.9943C239.465 21.8409 234.096 16.2159 225.914 16.2159C220.085 16.2159 215.866 19.0795 214.102 23.6562H213.641V16.7273H203.261V56H214.153V33.2955ZM248.05 56H258.942V33.7812C258.942 28.9489 262.47 25.625 267.277 25.625C268.786 25.625 270.857 25.8807 271.879 26.2131V16.5483C270.908 16.3182 269.553 16.1648 268.453 16.1648C264.055 16.1648 260.45 18.7216 259.018 23.5795H258.609V16.7273H248.05V56ZM287.585 56.7415C293.388 56.7415 297.147 54.2102 299.065 50.554H299.371V56H309.701V29.5114C309.701 20.1534 301.775 16.2159 293.031 16.2159C283.621 16.2159 277.434 20.7159 275.925 27.875L285.999 28.6932C286.741 26.0852 289.067 24.1676 292.979 24.1676C296.687 24.1676 298.809 26.0341 298.809 29.2557V29.4091C298.809 31.9403 296.124 32.2727 289.298 32.9375C281.525 33.6534 274.545 36.2614 274.545 45.0312C274.545 52.804 280.093 56.7415 287.585 56.7415ZM290.704 49.2244C287.354 49.2244 284.951 47.6648 284.951 44.6733C284.951 41.6051 287.482 40.0966 291.317 39.5597C293.695 39.2273 297.582 38.6648 298.886 37.7955V41.9631C298.886 46.0795 295.485 49.2244 290.704 49.2244ZM329.043 33.2955C329.069 28.233 332.163 25.267 336.612 25.267C341.035 25.267 343.643 28.1051 343.617 32.9375V56H354.509V30.9943C354.535 21.7898 349.114 16.2159 340.933 16.2159C334.975 16.2159 330.987 19.0284 329.197 23.6562H328.737V3.63636H318.151V56H329.043V33.2955ZM363.081 56H373.973V32.4261C373.973 28.0795 376.734 25.1903 380.365 25.1903C383.945 25.1903 386.348 27.6449 386.348 31.5057V56H396.908V32.017C396.908 27.9517 399.234 25.1903 403.197 25.1903C406.675 25.1903 409.283 27.3636 409.283 31.7358V56H420.149V29.5881C420.149 21.0739 415.087 16.2159 407.774 16.2159C402.021 16.2159 397.547 19.1562 395.936 23.6562H395.527C394.274 19.1051 390.26 16.2159 384.865 16.2159C379.572 16.2159 375.558 19.0284 373.922 23.6562H373.462V16.7273H363.081V56ZM439.952 56.7415C445.756 56.7415 449.514 54.2102 451.432 50.554H451.739V56H462.068V29.5114C462.068 20.1534 454.142 16.2159 445.398 16.2159C435.989 16.2159 429.801 20.7159 428.293 27.875L438.366 28.6932C439.108 26.0852 441.435 24.1676 445.347 24.1676C449.054 24.1676 451.176 26.0341 451.176 29.2557V29.4091C451.176 31.9403 448.491 32.2727 441.665 32.9375C433.892 33.6534 426.912 36.2614 426.912 45.0312C426.912 52.804 432.46 56.7415 439.952 56.7415ZM443.071 49.2244C439.722 49.2244 437.318 47.6648 437.318 44.6733C437.318 41.6051 439.849 40.0966 443.685 39.5597C446.062 39.2273 449.949 38.6648 451.253 37.7955V41.9631C451.253 46.0795 447.852 49.2244 443.071 49.2244ZM481.411 33.2955C481.436 28.233 484.453 25.267 488.851 25.267C493.223 25.267 495.857 28.1307 495.831 32.9375V56H506.723V30.9943C506.723 21.8409 501.354 16.2159 493.172 16.2159C487.342 16.2159 483.124 19.0795 481.359 23.6562H480.899V16.7273H470.518V56H481.411V33.2955ZM535.302 56.7159C546.961 56.767 554.913 49.1222 554.887 38.4602C554.913 28.642 548.06 21.5597 538.779 21.5597C533.026 21.5597 527.938 24.321 525.586 28.9489H525.228C525.279 18.5938 528.859 12.2528 535.685 12.2528C539.7 12.2528 542.589 14.4261 543.433 18.2614H554.35C553.302 9.46591 546.143 2.76704 535.685 2.76704C522.748 2.76704 514.438 13.25 514.387 30.9943C514.438 50.1705 524.538 56.6648 535.302 56.7159ZM535.251 48.0227C530.137 48.0227 526.353 43.9062 526.353 38.7926C526.379 33.7045 530.239 29.5625 535.327 29.5625C540.441 29.5625 544.174 33.5767 544.148 38.767C544.174 44.0085 540.364 48.0227 535.251 48.0227ZM582.092 56.7159C593.853 56.7159 602.265 50.2472 602.239 41.2983C602.265 34.7784 598.123 30.125 590.427 29.1534V28.7443C596.282 27.696 600.322 23.554 600.296 17.6733C600.322 9.41477 593.086 2.92045 582.245 2.92045C571.506 2.92045 563.427 9.21022 563.273 18.2614H573.884C574.012 14.2727 577.668 11.6903 582.194 11.6903C586.668 11.6903 589.66 14.4006 589.634 18.3381C589.66 22.4545 586.157 25.2415 581.12 25.2415H576.237V33.3722H581.12C587.052 33.3722 590.759 36.3381 590.734 40.5568C590.759 44.7244 587.18 47.5881 582.117 47.5881C577.234 47.5881 573.577 45.0312 573.373 41.196H562.225C562.404 50.3494 570.586 56.7159 582.092 56.7159ZM629.143 2.76704C617.433 2.71591 609.533 10.3864 609.584 21.0227C609.533 30.8409 616.385 37.9233 625.666 37.9233C631.419 37.9233 636.533 35.1364 638.859 30.5341H639.217C639.192 40.9148 635.587 47.2301 628.76 47.2301C624.746 47.2301 621.857 45.0312 621.013 41.2216H610.095C611.118 50.0426 618.277 56.7159 628.76 56.7159C641.723 56.7159 650.033 46.233 650.058 28.4631C650.033 9.3125 639.908 2.79261 629.143 2.76704ZM629.22 11.4602C634.308 11.4602 638.067 15.6023 638.118 20.6648C638.067 25.7528 634.18 29.8949 629.118 29.8949C624.004 29.8949 620.271 25.9062 620.322 20.7159C620.271 15.4744 624.081 11.4602 629.22 11.4602ZM676.675 2.76704C664.964 2.71591 657.064 10.3864 657.115 21.0227C657.064 30.8409 663.916 37.9233 673.197 37.9233C678.95 37.9233 684.064 35.1364 686.391 30.5341H686.749C686.723 40.9148 683.118 47.2301 676.291 47.2301C672.277 47.2301 669.388 45.0312 668.544 41.2216H657.626C658.649 50.0426 665.808 56.7159 676.291 56.7159C689.254 56.7159 697.564 46.233 697.589 28.4631C697.564 9.3125 687.439 2.79261 676.675 2.76704ZM676.751 11.4602C681.839 11.4602 685.598 15.6023 685.649 20.6648C685.598 25.7528 681.712 29.8949 676.649 29.8949C671.536 29.8949 667.803 25.9062 667.854 20.7159C667.803 15.4744 671.612 11.4602 676.751 11.4602Z" fill="#121212"/>
<path d="M739.649 71.0852C746.936 71.0852 754.07 69.3722 757.266 67.5568L754.734 60.142C751.999 61.267 746.118 62.75 740.237 62.75C723.567 62.75 714.516 53.9034 714.464 37.7443C714.516 23.1193 722.851 12.0994 739.854 12.0994C752.152 12.0994 763.581 17.9801 763.555 34.0369C763.581 44.0341 761.74 48.5852 758.212 48.5852C756.447 48.5852 755.374 47.2557 755.348 44.8778V19.9233H747.345V22.7869H746.987C746.118 20.5369 740.697 18.4148 734.945 19.2841C728.118 20.2812 720.754 25.8807 720.703 37.7443C720.754 49.7869 727.607 55.9489 735.686 56.3835C741.49 56.7159 746.706 54.2869 747.908 51.1932H748.214C748.777 54.7216 751.129 57.125 757.061 56.6903C768.107 56.0767 772.325 47.179 772.3 34.625C772.325 16.446 760.308 3.86647 739.982 3.86647C717.993 3.86647 705.388 17.4943 705.362 38.0511C705.388 58.9403 717.891 71.0852 739.649 71.0852ZM738.473 47.9716C731.8 47.9716 729.55 42.858 729.524 37.4375C729.55 31.608 732.746 27.7983 738.422 27.7983C744.891 27.7983 746.834 31.2244 746.859 37.3608C746.936 44.3153 744.737 47.9716 738.473 47.9716ZM797.235 71.2898C808.46 71.2898 816.437 66.1761 816.437 56.3835V16.7273H805.621V23.3239H805.212C803.755 20.1278 800.559 16.2159 793.988 16.2159C785.371 16.2159 778.085 22.9148 778.085 36.2869C778.085 49.3523 785.167 55.4375 794.013 55.4375C800.278 55.4375 803.781 52.2926 805.212 49.0455H805.673V56.2301C805.673 61.3693 802.221 63.4659 797.491 63.4659C792.684 63.4659 790.255 61.3693 789.36 59.2472L779.286 60.6023C780.59 66.5341 786.65 71.2898 797.235 71.2898ZM797.465 47.2557C792.121 47.2557 789.207 43.0114 789.207 36.2358C789.207 29.5625 792.07 24.8835 797.465 24.8835C802.758 24.8835 805.724 29.358 805.724 36.2358C805.724 43.1648 802.707 47.2557 797.465 47.2557ZM825.104 56H835.996V32.4261C835.996 28.0795 838.758 25.1903 842.388 25.1903C845.968 25.1903 848.371 27.6449 848.371 31.5057V56H858.931V32.017C858.931 27.9517 861.258 25.1903 865.221 25.1903C868.698 25.1903 871.306 27.3636 871.306 31.7358V56H882.173V29.5881C882.173 21.0739 877.11 16.2159 869.798 16.2159C864.045 16.2159 859.57 19.1562 857.96 23.6562H857.55C856.298 19.1051 852.283 16.2159 846.888 16.2159C841.596 16.2159 837.582 19.0284 835.945 23.6562H835.485V16.7273H825.104V56ZM901.975 56.7415C907.779 56.7415 911.538 54.2102 913.455 50.554H913.762V56H924.092V29.5114C924.092 20.1534 916.165 16.2159 907.421 16.2159C898.012 16.2159 891.825 20.7159 890.316 27.875L900.39 28.6932C901.131 26.0852 903.458 24.1676 907.37 24.1676C911.077 24.1676 913.2 26.0341 913.2 29.2557V29.4091C913.2 31.9403 910.515 32.2727 903.688 32.9375C895.915 33.6534 888.935 36.2614 888.935 45.0312C888.935 52.804 894.484 56.7415 901.975 56.7415ZM905.094 49.2244C901.745 49.2244 899.342 47.6648 899.342 44.6733C899.342 41.6051 901.873 40.0966 905.708 39.5597C908.086 39.2273 911.972 38.6648 913.276 37.7955V41.9631C913.276 46.0795 909.876 49.2244 905.094 49.2244ZM932.542 56H943.434V16.7273H932.542V56ZM938.013 11.6648C941.261 11.6648 943.92 9.18466 943.92 6.14204C943.92 3.125 941.261 0.644884 938.013 0.644884C934.792 0.644884 932.133 3.125 932.133 6.14204C932.133 9.18466 934.792 11.6648 938.013 11.6648ZM963.051 3.63636H952.159V56H963.051V3.63636ZM978.143 56.6648C981.415 56.6648 984.254 53.929 984.279 50.5284C984.254 47.179 981.415 44.4432 978.143 44.4432C974.768 44.4432 971.981 47.179 972.006 50.5284C971.981 53.929 974.768 56.6648 978.143 56.6648ZM1010.97 56.767C1021.42 56.767 1027.99 50.6307 1028.51 41.6051H1018.23C1017.59 45.7983 1014.83 48.1506 1011.09 48.1506C1006.01 48.1506 1002.71 43.8807 1002.71 36.3636C1002.71 28.9489 1006.03 24.7045 1011.09 24.7045C1015.08 24.7045 1017.64 27.3381 1018.23 31.25H1028.51C1028.05 22.1733 1021.17 16.2159 1010.91 16.2159C999 16.2159 991.636 24.4744 991.636 36.517C991.636 48.4574 998.872 56.767 1010.97 56.767ZM1053.22 56.767C1065.14 56.767 1072.55 48.6108 1072.55 36.517C1072.55 24.3466 1065.14 16.2159 1053.22 16.2159C1041.31 16.2159 1033.89 24.3466 1033.89 36.517C1033.89 48.6108 1041.31 56.767 1053.22 56.767ZM1053.27 48.3295C1047.78 48.3295 1044.97 43.2926 1044.97 36.4403C1044.97 29.5881 1047.78 24.5256 1053.27 24.5256C1058.67 24.5256 1061.48 29.5881 1061.48 36.4403C1061.48 43.2926 1058.67 48.3295 1053.27 48.3295ZM1079.64 56H1090.53V32.4261C1090.53 28.0795 1093.29 25.1903 1096.92 25.1903C1100.5 25.1903 1102.9 27.6449 1102.9 31.5057V56H1113.46V32.017C1113.46 27.9517 1115.79 25.1903 1119.75 25.1903C1123.23 25.1903 1125.84 27.3636 1125.84 31.7358V56H1136.7V29.5881C1136.7 21.0739 1131.64 16.2159 1124.33 16.2159C1118.58 16.2159 1114.1 19.1562 1112.49 23.6562H1112.08C1110.83 19.1051 1106.81 16.2159 1101.42 16.2159C1096.13 16.2159 1092.11 19.0284 1090.48 23.6562H1090.02V16.7273H1079.64V56Z" fill="#6A6A6A"/>
<path d="M0 70.5483H701.016V77.4261H0V70.5483Z" fill="#121212"/>
<path d="M701.016 70.5483H1140.95V77.4261H701.016V70.5483Z" fill="#6A6A6A"/>
</svg>
